<?xml version="1.0" encoding="UTF-8"?>
<svg xmlns="http://www.w3.org/2000/svg" fill="none" height="130" viewBox="0 0 462 130" width="462">
  <g fill="#fff">
    <path d="m401.941 31.2674h28.078c6.033 0 11.176.9087 15.429 2.726 4.252 1.8174 7.505 4.5071 9.759 8.0691 2.29 3.5256 3.435 7.8872 3.435 13.0848 0 3.9619-.727 7.4512-2.181 10.468s-3.508 5.561-6.161 7.6328c-2.653 2.0354-5.815 3.6165-9.486 4.7433l-4.144 2.0172h-25.243l-.109-10.8495h18.919c3.271 0 5.997-.5816 8.178-1.7447 2.18-1.1631 3.816-2.7442 4.906-4.7432 1.127-2.0355 1.691-4.3253 1.691-6.8696 0-2.7624-.546-5.1613-1.636-7.1967-1.054-2.0718-2.69-3.6529-4.907-4.7433-2.217-1.1267-5.034-1.6901-8.45-1.6901h-14.394v68.4775h-13.684zm45.306 79.3816-18.646-35.6562 14.339-.0546 18.918 35.0018v.709z"></path>
    <path d="m379.598 99.7995v10.8495h-42.144v-10.8495zm-38.273-68.5321v79.3816h-13.685v-79.3816zm32.767 33.1484v10.686h-36.638v-10.686zm5.233-33.1484v10.9041h-41.871v-10.9041z"></path>
    <path d="m304.589 99.7995v10.8495h-55.12v-10.8495zm-1.254-60.0814-48.796 70.9309h-9.159v-8.669l48.959-70.7126h8.996zm-5.07-8.4507v10.9041h-52.558v-10.9041z"></path>
    <path d="m220.911 31.2674v79.3816h-13.685v-79.3816z"></path>
    <path d="m166.62 31.2674h13.63v53.0483c0 6.0336-1.309 11.0859-3.926 15.1567-2.617 4.0706-6.179 7.1426-10.686 9.2136-4.47 2.036-9.468 3.053-14.993 3.053-5.706 0-10.795-1.017-15.265-3.053-4.471-2.071-7.997-5.143-10.577-9.2136-2.545-4.0708-3.817-9.1231-3.817-15.1567v-53.0483h13.63v53.0483c0 3.8165.654 6.9605 1.963 9.4321 1.308 2.4352 3.162 4.2344 5.561 5.3975 2.399 1.1627 5.234 1.7447 8.505 1.7447s6.088-.582 8.451-1.7447c2.399-1.1631 4.252-2.9623 5.561-5.3975 1.308-2.4716 1.963-5.6156 1.963-9.4321z"></path>
    <path d="m61.6966 96.1058 28.7118 22.7892-12.2194 10.72-28.187-22.564zm28.9367-43.0302v5.9972c0 8.2462-1.0745 15.6428-3.2235 22.1898s-5.2226 12.1194-9.2208 16.7173c-3.9981 4.5981-8.7709 8.1211-14.3184 10.5701-5.5474 2.399-11.6946 3.598-18.4415 3.598-6.6969 0-12.8191-1.199-18.3666-3.598-5.4974-2.449-10.2702-5.972-14.3184-10.5701-4.0481-4.5979-7.19665-10.1703-9.44562-16.7173-2.19899-6.547-3.29848-13.9436-3.29848-22.1898v-5.9972c0-8.2462 1.09949-15.6178 3.29848-22.1148 2.19899-6.547 5.29756-12.1195 9.29572-16.7174 4.0481-4.64782 8.8209-8.17119 14.3184-10.57009 5.5475-2.44887 11.6696-3.67331 18.3666-3.67331 6.7469 0 12.894 1.22444 18.4415 3.67331 5.5974 2.3989 10.3952 5.92227 14.3934 10.57009 3.9981 4.5979 7.0717 10.1704 9.2207 16.7174 2.199 6.497 3.2985 13.8686 3.2985 22.1148zm-18.8913 5.9972v-6.1472c0-6.0971-.5997-11.4697-1.7992-16.1175-1.1495-4.6979-2.8737-8.6211-5.1726-11.7696-2.249-3.1985-5.0227-5.5974-8.3212-7.1967-3.2485-1.6493-6.9718-2.4739-11.1698-2.4739-4.0982 0-7.7715.8246-11.02 2.4739-3.2485 1.5993-6.0222 3.9982-8.3211 7.1967-2.299 3.1485-4.0482 7.0717-5.2476 11.7696-1.1995 4.6478-1.7992 10.0204-1.7992 16.1175v6.1472c0 6.0972.5997 11.4947 1.7992 16.1926 1.1994 4.6978 2.9486 8.671 5.2476 11.9195 2.3489 3.1985 5.1476 5.6224 8.3961 7.2716 3.2985 1.5993 6.9968 2.3989 11.0949 2.3989 4.1981 0 7.9213-.7996 11.1699-2.3989 3.2485-1.6492 5.9972-4.0731 8.2462-7.2716 2.2489-3.2485 3.9481-7.2217 5.0976-11.9195 1.1995-4.6979 1.7992-10.0954 1.7992-16.1926z"></path>
  </g>
</svg>
